<svg width="51" height="48" viewBox="0 0 51 48" fill="none" xmlns="http://www.w3.org/2000/svg">
<path d="M49.4723 35.4316C49.879 35.0579 49.9057 34.4253 49.5321 34.0187L43.4428 27.3913C43.0692 26.9847 42.4366 26.9579 42.0299 27.3316C41.6232 27.7052 41.5964 28.3378 41.9701 28.7445L47.3827 34.6354L41.4918 40.0481C41.0851 40.4218 41.0583 41.0544 41.432 41.461C41.8057 41.8677 42.4383 41.8945 42.845 41.5208L49.4723 35.4316ZM11.5875 1.81994C6.65755 9.5154 6.38862 15.6922 9.13752 20.5537C11.8237 25.3041 17.2482 28.5157 23.0563 30.707C28.9006 32.912 35.3289 34.1558 40.2733 34.8496C42.7502 35.1972 44.8652 35.4081 46.3626 35.5322C47.1115 35.5943 47.7064 35.6347 48.1154 35.6596C48.3199 35.6721 48.478 35.6807 48.5856 35.6863C48.6394 35.689 48.6807 35.691 48.7088 35.6923C48.7229 35.693 48.7337 35.6935 48.7411 35.6938C48.7448 35.694 48.7477 35.6941 48.7498 35.6942C48.7508 35.6942 48.7517 35.6943 48.7522 35.6943C48.7529 35.6943 48.7534 35.6943 48.7957 34.6952C48.838 33.6961 48.838 33.6961 48.8379 33.6961C48.8375 33.6961 48.8372 33.6961 48.8365 33.6961C48.8352 33.696 48.833 33.6959 48.83 33.6958C48.824 33.6955 48.8147 33.6951 48.8022 33.6945C48.777 33.6933 48.7388 33.6915 48.6881 33.6889C48.5866 33.6837 48.435 33.6754 48.2371 33.6634C47.8414 33.6392 47.2611 33.5998 46.5278 33.539C45.061 33.4174 42.9842 33.2104 40.5512 32.869C35.6755 32.1849 29.4106 30.9668 23.7623 28.8358C18.0778 26.6911 13.2101 23.6928 10.8785 19.5693C8.60955 15.5567 8.59708 10.1955 13.2716 2.89881L11.5875 1.81994Z" fill="#156DFF"/>
</svg>
