<svg width="51" height="48" viewBox="0 0 51 48" fill="none" xmlns="http://www.w3.org/2000/svg">
<path d="M49.4723 35.4315C49.879 35.0578 49.9057 34.4252 49.5321 34.0186L43.4428 27.3912C43.0692 26.9846 42.4366 26.9578 42.0299 27.3315C41.6232 27.7051 41.5964 28.3377 41.9701 28.7444L47.3827 34.6353L41.4918 40.048C41.0851 40.4217 41.0583 41.0543 41.432 41.4609C41.8057 41.8676 42.4383 41.8944 42.845 41.5207L49.4723 35.4315ZM11.5875 1.81982C6.65755 9.51528 6.38862 15.6921 9.13752 20.5536C11.8237 25.304 17.2482 28.5156 23.0563 30.7069C28.9006 32.9119 35.3289 34.1557 40.2733 34.8495C42.7502 35.1971 44.8652 35.408 46.3626 35.5321C47.1115 35.5942 47.7064 35.6346 48.1154 35.6595C48.3199 35.672 48.478 35.6806 48.5856 35.6862C48.6394 35.6889 48.6807 35.6909 48.7088 35.6922C48.7229 35.6929 48.7337 35.6934 48.7411 35.6937C48.7448 35.6939 48.7477 35.694 48.7498 35.6941C48.7508 35.6941 48.7517 35.6942 48.7522 35.6942C48.7529 35.6942 48.7534 35.6942 48.7957 34.6951C48.838 33.696 48.838 33.696 48.8379 33.696C48.8375 33.696 48.8372 33.696 48.8365 33.696C48.8352 33.6959 48.833 33.6958 48.83 33.6957C48.824 33.6954 48.8147 33.695 48.8022 33.6944C48.777 33.6932 48.7388 33.6914 48.6881 33.6888C48.5866 33.6836 48.435 33.6753 48.2371 33.6633C47.8414 33.6391 47.2611 33.5997 46.5278 33.5389C45.061 33.4173 42.9842 33.2103 40.5512 32.8689C35.6755 32.1848 29.4106 30.9667 23.7623 28.8357C18.0778 26.691 13.2101 23.6927 10.8785 19.5692C8.60955 15.5566 8.59708 10.1954 13.2716 2.89869L11.5875 1.81982Z" fill="black"/>
</svg>
